<?xml version="1.0" standalone="no"?>
<!DOCTYPE svg PUBLIC "-//W3C//DTD SVG 20010904//EN"
 "http://www.w3.org/TR/2001/REC-SVG-20010904/DTD/svg10.dtd">
<svg version="1.0" xmlns="http://www.w3.org/2000/svg"
 width="460.000000pt" height="460.000000pt" viewBox="0 0 460.000000 460.000000"
 preserveAspectRatio="xMidYMid meet">

<g transform="translate(0.000000,460.000000) scale(0.100000,-0.100000)"
fill="#000000" stroke="none">
<path d="M613 4584 c-165 -30 -276 -87 -394 -204 -72 -71 -94 -101 -133 -180
-87 -177 -80 -25 -83 -1871 -3 -1600 -3 -1637 17 -1735 62 -309 286 -525 600
-578 85 -15 266 -16 1730 -14 1835 4 1675 -3 1845 78 201 97 339 277 386 504
19 93 19 140 17 1748 -3 1577 -4 1656 -22 1718 -61 215 -196 381 -381 470
-170 81 -7 75 -1860 76 -1327 1 -1664 -1 -1722 -12z m1897 -664 c405 -50 803
-273 1061 -595 186 -231 299 -487 350 -795 21 -127 16 -376 -9 -515 -109 -585
-518 -1066 -1073 -1260 -538 -188 -1119 -86 -1569 276 -302 243 -505 587 -582
984 -8 46 -13 146 -13 290 0 192 3 233 23 322 70 311 209 575 416 790 265 276
577 440 942 497 108 17 339 20 454 6z"/>
<path d="M2160 3849 c-540 -52 -1006 -373 -1253 -864 -56 -110 -112 -279 -138
-410 -21 -107 -19 -477 4 -578 102 -460 368 -828 757 -1049 264 -150 544 -219
840 -205 186 9 306 33 468 93 477 176 837 570 971 1062 76 278 65 612 -30 897
-126 378 -413 711 -762 887 -194 97 -376 149 -589 168 -125 11 -146 11 -268
-1z m108 -132 c18 -23 48 -60 67 -82 l35 -40 0 73 c0 57 -3 72 -15 72 -31 0
-13 18 23 23 40 5 67 -8 39 -19 -15 -5 -17 -23 -17 -120 0 -104 -2 -114 -18
-114 -10 0 -27 10 -38 23 -10 12 -41 50 -68 82 -27 33 -53 64 -58 70 -4 5 -8
-26 -8 -68 0 -62 3 -77 15 -77 8 0 15 -4 15 -10 0 -12 -41 -23 -66 -18 -22 4
-31 28 -10 28 14 0 16 15 16 100 0 82 -3 100 -15 100 -24 0 -17 18 8 22 41 6
62 -3 95 -45z m-184 9 c-3 -14 1 -56 10 -94 25 -111 -8 -162 -108 -162 -61 0
-79 22 -101 122 -13 62 -22 82 -36 85 -33 9 -21 18 38 31 57 12 80 8 53 -8
-12 -8 -12 -18 -1 -72 22 -108 39 -128 97 -114 39 10 46 36 29 110 -20 85 -25
96 -41 96 -23 0 -16 18 9 23 52 10 58 8 51 -17z m496 7 c13 -4 12 -7 -3 -18
-13 -9 -22 -39 -32 -102 -12 -79 -12 -89 3 -100 23 -19 11 -23 -46 -16 -34 4
-52 10 -52 19 0 8 5 13 12 12 18 -4 45 169 30 193 -7 10 -12 21 -12 24 0 5 74
-3 100 -12z m123 -29 c45 -15 63 -34 32 -34 -12 0 -15 -12 -14 -52 1 -29 4
-64 8 -77 6 -22 9 -21 54 34 35 42 44 60 35 66 -20 13 -2 21 31 14 37 -8 50
-24 25 -32 -11 -2 -53 -44 -94 -93 -41 -48 -80 -85 -87 -83 -14 6 -20 35 -29
155 -3 49 -10 90 -15 94 -11 7 -12 24 -1 24 5 0 29 -7 55 -16z m312 -130 c71
-39 85 -55 65 -79 -17 -21 -33 -19 -26 3 4 12 -3 23 -23 35 -29 17 -30 17 -51
-13 -22 -30 -22 -32 -4 -46 11 -7 29 -12 42 -9 22 5 22 5 7 -24 -19 -38 -35
-48 -35 -22 0 17 -37 50 -44 39 -21 -28 -36 -55 -36 -65 0 -19 60 -47 73 -34
26 26 35 7 11 -24 -14 -19 -16 -19 -89 20 -68 36 -95 65 -62 65 7 0 34 36 60
81 37 64 45 84 36 95 -20 24 6 16 76 -22z m-1413 -39 c13 -28 4 -45 -14 -27
-34 34 -118 -16 -118 -69 0 -61 53 -119 108 -119 34 0 66 33 57 59 -5 16 -12
21 -26 18 -37 -10 -29 12 14 37 49 29 61 32 54 14 -2 -7 3 -25 11 -40 16 -27
15 -29 -18 -62 -42 -44 -87 -66 -135 -66 -30 0 -45 8 -76 39 -68 67 -53 150
37 210 58 38 90 40 106 6z m1626 -105 c60 -50 74 -76 54 -106 -12 -18 -50 -34
-66 -28 -15 6 -21 -21 -28 -113 l-3 -33 -27 23 c-26 22 -26 23 -16 94 l11 71
33 -5 c29 -5 35 -2 45 20 9 21 9 30 -1 42 -7 8 -16 15 -20 15 -14 0 -120 -134
-119 -150 3 -31 -2 -31 -41 0 -39 31 -54 57 -25 47 20 -8 136 132 129 156 -9
27 7 20 74 -33z m-660 -26 c396 -97 706 -388 820 -769 63 -210 71 -277 46
-388 -6 -27 -6 -27 21 -17 18 7 32 7 38 1 12 -12 1 -88 -18 -125 -19 -37 -19
-36 11 -36 29 0 64 -16 64 -30 0 -20 -103 -119 -145 -139 -59 -28 -60 -51 -2
-51 23 0 59 -5 81 -11 l39 -11 -42 -42 c-24 -24 -64 -54 -91 -66 -27 -13 -47
-27 -43 -33 8 -13 -103 -123 -155 -154 l-44 -26 29 -12 c15 -7 34 -20 42 -29
12 -14 11 -19 -5 -31 -53 -41 -131 -69 -201 -73 -40 -2 -73 -6 -73 -9 0 -3 9
-18 21 -35 12 -16 19 -32 16 -34 -11 -12 -124 -16 -174 -6 -37 6 -51 6 -50 -2
4 -20 -81 -8 -140 19 -38 17 -60 22 -67 15 -14 -14 -11 -15 94 -41 52 -13 95
-28 94 -34 0 -5 -19 -23 -42 -40 l-43 -29 -34 18 c-34 19 -38 19 -156 1 -126
-18 -224 -17 -357 6 -55 10 -69 9 -102 -6 l-38 -17 -46 32 c-26 17 -44 35 -41
40 3 5 51 19 105 32 83 18 98 24 87 35 -11 11 -23 9 -68 -11 -72 -33 -139 -44
-139 -23 0 12 -7 13 -37 6 -74 -17 -183 -7 -183 16 0 7 9 23 19 37 l20 25 -57
0 c-31 0 -75 5 -97 12 -53 17 -145 72 -145 87 0 6 19 21 41 31 l42 20 -44 25
c-51 30 -154 131 -154 150 0 7 -16 20 -35 29 -19 9 -56 35 -82 59 -27 23 -48
37 -48 32 0 -5 16 -36 35 -68 19 -32 35 -66 35 -75 0 -30 -29 -51 -61 -44 -26
6 -30 3 -51 -39 -12 -25 -25 -46 -28 -46 -4 0 -12 10 -17 23 -9 19 -6 31 13
63 30 49 30 56 -1 42 -14 -6 -25 -17 -25 -24 0 -30 -21 -22 -39 14 -21 40 -19
55 4 46 20 -8 135 54 135 72 0 12 -6 15 -25 10 -28 -7 -30 -4 -13 24 11 17 10
25 -2 48 -19 33 -56 40 -98 18 -41 -21 -48 -58 -22 -103 26 -44 18 -55 -16
-21 -31 31 -43 98 -23 134 16 30 58 54 95 54 30 0 94 -58 94 -85 0 -12 5 -15
18 -10 9 4 45 12 80 17 34 6 62 15 62 19 0 5 -15 15 -33 23 -45 20 -92 56
-127 101 -39 49 -38 63 8 71 52 9 54 12 38 43 -8 15 -16 50 -18 77 -3 44 -1
49 17 48 11 -1 28 -5 37 -8 15 -7 15 -4 2 40 -8 26 -14 65 -14 86 0 47 32 194
67 303 130 406 513 721 943 774 115 15 280 4 398 -25z m-1240 -26 c-2 -16 16
-37 72 -87 41 -36 75 -72 75 -81 0 -12 -22 -16 -122 -20 l-123 -5 58 -47 c39
-32 61 -43 69 -37 23 20 21 -8 -3 -39 -24 -31 -51 -35 -40 -6 3 8 -22 38 -62
74 -52 46 -72 59 -89 55 -30 -7 -30 15 0 43 20 19 36 22 129 24 l106 3 -46 40
c-29 25 -54 38 -69 37 l-24 -2 27 35 c30 40 47 45 42 13z m2102 -149 c16 -16
32 -39 35 -50 7 -22 -10 -49 -31 -49 -17 0 -18 12 -3 27 18 18 -15 63 -45 63
-34 0 -39 -25 -16 -70 26 -51 25 -66 -5 -95 -38 -39 -80 -34 -127 15 -44 48
-48 73 -13 96 27 18 47 12 27 -8 -27 -27 0 -88 38 -88 35 0 42 24 22 76 -21
53 -16 85 15 103 34 20 73 13 103 -20z m-2220 -155 c35 -30 60 -73 60 -104 0
-27 -32 -90 -58 -113 -36 -33 -80 -39 -128 -17 -99 43 -111 147 -26 228 46 42
105 45 152 6z m2344 -14 c27 -41 27 -72 1 -50 -10 9 -32 0 -92 -38 -43 -27
-78 -56 -78 -65 0 -32 -13 -27 -39 17 -30 52 -32 60 -10 52 23 -9 185 90 177
109 -11 30 15 14 41 -25z m97 -190 c23 -55 40 -102 38 -104 -2 -3 -16 -7 -32
-11 -28 -7 -39 8 -13 18 15 6 11 43 -6 53 -16 10 -171 -59 -176 -78 -7 -28
-15 -21 -39 32 -23 53 -21 65 8 47 14 -9 33 -5 96 23 43 18 80 35 82 37 2 1
-1 15 -8 29 -7 16 -17 24 -26 20 -22 -8 -28 11 -8 23 10 6 23 11 29 11 7 0 31
-45 55 -100z m-2691 -27 c0 -14 24 -27 98 -52 110 -39 152 -72 152 -120 0 -33
-10 -44 -34 -35 -13 5 -14 10 -5 20 6 7 8 17 5 22 -3 5 -54 26 -112 47 -88 31
-111 35 -126 26 -32 -20 -37 -3 -15 54 20 54 37 72 37 38z m2526 -152 c5 -6
29 -13 54 -16 139 -20 185 -31 188 -45 1 -9 -36 -43 -93 -85 -52 -38 -94 -76
-95 -82 0 -29 -18 -10 -29 31 -15 61 -15 71 3 57 35 -29 62 30 36 80 -13 22
-50 26 -50 4 0 -8 -4 -15 -9 -15 -9 0 -12 8 -27 63 -6 18 6 23 22 8z m-2562
-7 c21 -8 20 -21 -3 -27 -11 -3 -20 -16 -23 -35 -4 -32 9 -42 56 -42 16 0 18
5 12 41 -6 36 -4 41 10 35 9 -3 27 -9 40 -12 28 -7 32 -24 5 -24 -19 0 -37
-39 -23 -52 4 -3 23 -9 43 -13 36 -7 36 -6 42 31 5 29 2 40 -11 50 -9 7 -14
15 -11 19 11 10 59 -6 59 -20 0 -18 -30 -158 -34 -163 -3 -2 -15 3 -28 11 -12
8 -58 23 -102 32 -65 15 -80 15 -87 4 -19 -31 -21 7 -4 86 17 84 24 93 59 79z
m134 -259 c25 -31 34 -81 24 -120 -7 -26 -14 -30 -45 -33 -29 -2 -37 0 -37 13
0 9 7 15 17 13 23 -4 50 49 36 71 -6 9 -21 16 -34 16 -19 0 -27 -8 -37 -40
-17 -53 -39 -75 -74 -75 -45 0 -78 39 -78 94 0 62 7 76 40 76 38 0 47 -18 16
-30 -20 -7 -26 -17 -26 -39 0 -61 55 -64 66 -3 11 62 29 82 74 82 29 0 43 -6
58 -25z m2695 -16 c11 -14 17 -38 17 -75 l0 -54 -35 0 c-19 0 -35 5 -35 10 0
6 7 10 15 10 23 0 37 35 25 64 -20 54 -70 19 -70 -49 0 -14 -11 -32 -27 -45
-33 -26 -68 -20 -101 16 -19 22 -22 35 -20 83 3 55 3 56 36 59 18 2 32 -1 32
-7 0 -6 -7 -11 -15 -11 -9 0 -21 -11 -27 -25 -16 -35 3 -75 36 -75 25 0 29 6
41 67 13 63 87 81 128 32z m-2790 -270 c29 -16 37 -28 37 -61 0 -62 -81 -90
-119 -42 -27 35 -26 59 4 89 27 28 45 31 78 14z m2758 -17 c45 -38 16 -122
-43 -122 -25 0 -68 44 -68 70 0 26 43 70 68 70 11 0 30 -8 43 -18z m-151 -195
c0 -17 124 -69 145 -61 12 5 13 1 4 -25 -11 -30 -29 -51 -29 -33 0 5 -23 19
-51 31 -58 23 -57 20 10 -51 19 -21 32 -40 29 -44 -3 -3 -37 -9 -75 -12 l-68
-7 44 -18 c24 -10 52 -15 62 -12 22 7 23 5 7 -30 -12 -27 -28 -34 -28 -12 0 8
-30 25 -66 40 -61 24 -68 25 -82 10 -15 -15 -15 -17 2 -27 48 -28 100 -73 107
-92 11 -30 -21 -86 -56 -99 -23 -8 -37 -4 -87 23 -48 27 -62 31 -74 21 -8 -6
-13 -16 -12 -20 6 -17 113 -89 125 -85 19 8 16 -8 -8 -38 -19 -24 -48 -38 -35
-17 6 9 -101 101 -117 101 -4 0 -5 -11 -1 -24 5 -21 3 -24 -14 -19 -12 3 -22
-1 -26 -12 -7 -19 76 -102 107 -107 15 -2 12 -9 -19 -38 -20 -19 -34 -28 -31
-19 8 24 -94 124 -111 107 -7 -7 -12 -21 -12 -31 0 -16 -3 -17 -14 -8 -10 8
-16 9 -21 1 -8 -13 71 -109 98 -119 17 -6 15 -10 -18 -36 -21 -15 -36 -22 -33
-14 5 14 -78 129 -92 129 -4 0 -13 -6 -19 -14 -10 -12 -9 -34 4 -102 10 -54
13 -90 7 -96 -6 -6 -38 10 -85 41 -41 28 -83 51 -92 51 -23 0 -8 19 36 44 28
17 32 17 26 2 -5 -12 7 -26 41 -50 26 -19 48 -33 49 -32 2 1 -2 28 -8 60 -9
41 -16 56 -25 52 -29 -11 -12 11 35 47 72 55 235 228 268 284 17 29 29 42 31
32 1 -8 28 -30 58 -49 58 -35 75 -34 98 3 15 24 -1 46 -58 79 -28 17 -53 25
-63 21 -17 -7 -17 -6 0 17 10 14 25 41 35 61 16 36 19 37 85 44 l68 6 -30 38
c-17 21 -37 43 -45 50 -11 10 -12 19 -4 42 10 30 28 40 28 16z m-2331 -364
c37 -52 39 -58 23 -69 -23 -18 -35 -17 -28 2 6 16 -9 54 -22 54 -4 0 -16 -7
-26 -15 -16 -12 -17 -18 -7 -28 6 -6 17 -12 23 -12 23 0 18 -22 -7 -33 -34
-16 -37 -15 -30 7 9 30 -16 42 -44 20 -22 -18 -22 -20 -7 -44 10 -15 22 -22
31 -19 22 9 18 -14 -4 -26 -17 -8 -24 -3 -55 40 -37 51 -44 70 -26 70 19 0
120 80 120 95 0 28 19 15 59 -42z m114 -139 c3 -3 -10 -40 -30 -82 -20 -43
-36 -85 -37 -94 -4 -30 -13 -30 -40 2 -29 35 -34 52 -12 44 21 -8 29 27 9 48
-18 20 -47 21 -49 0 -1 -6 -2 -15 -3 -19 -2 -9 -51 39 -51 50 0 5 6 7 13 4 7
-2 46 8 87 23 77 29 102 34 113 24z m142 -132 c111 -89 106 -85 148 -104 36
-17 47 -33 27 -40 -6 -2 -13 -28 -17 -57 l-6 -55 41 35 c29 23 40 39 36 52 -7
22 -9 22 75 -13 39 -16 106 -39 149 -51 89 -24 96 -29 87 -59 -7 -21 -20 -19
-20 3 0 7 -9 13 -21 15 -18 3 -23 -6 -38 -60 -9 -35 -14 -72 -10 -82 6 -15 3
-17 -12 -13 -10 3 -31 9 -46 13 -32 7 -36 19 -10 26 11 3 22 23 31 59 8 30 16
59 18 65 6 16 -28 27 -41 14 -16 -16 -25 -12 -19 11 4 16 2 20 -8 17 -21 -7
-60 -108 -54 -142 4 -24 2 -27 -13 -21 -9 4 -30 12 -46 17 -28 11 -28 11 -9
27 11 9 29 42 41 74 37 98 12 102 -88 16 -39 -33 -75 -57 -81 -53 -8 4 -9 33
-4 90 11 136 -9 159 -65 72 -19 -28 -34 -61 -36 -72 -2 -23 -14 -23 -50 0 -27
18 -32 34 -10 34 15 0 86 100 86 120 0 7 -8 9 -22 5 -16 -6 -20 -4 -15 8 5 14
-9 37 -24 37 -9 0 -90 -106 -88 -116 4 -23 -4 -23 -37 2 -32 25 -34 29 -17 35
11 4 38 29 61 57 34 41 39 52 28 61 -7 6 -21 9 -30 5 -19 -7 -22 16 -4 34 14
14 13 14 113 -66z m1436 -143 c16 -8 20 -19 17 -47 -3 -35 0 -38 47 -64 l50
-27 -29 -11 c-25 -9 -35 -7 -77 21 -43 27 -47 33 -34 46 11 11 12 19 5 34 -11
20 -50 27 -50 9 0 -24 61 -130 75 -130 8 0 15 -4 15 -10 0 -5 -2 -10 -4 -10
-2 0 -20 -7 -41 -16 -35 -14 -37 -14 -31 2 8 21 -53 144 -72 144 -24 0 -2 20
51 44 63 30 54 28 78 15z m-148 -69 c3 -11 1 -23 -4 -26 -5 -3 -9 0 -9 6 0 8
-9 10 -27 5 -36 -9 -35 -8 -24 -39 12 -30 23 -33 46 -10 19 19 21 18 31 -21 6
-26 5 -28 -8 -17 -25 20 -51 4 -43 -27 9 -33 8 -33 39 -25 14 3 26 12 26 20 0
8 5 14 10 14 6 0 10 -2 10 -4 0 -2 3 -11 6 -19 4 -11 -10 -21 -51 -36 -66 -25
-75 -26 -75 -7 0 36 -42 146 -55 146 -34 0 -11 17 48 37 78 27 74 27 80 3z
m-164 -52 c11 -28 6 -35 -13 -19 -23 19 -61 10 -61 -14 0 -16 8 -21 45 -25 35
-4 48 -11 59 -32 13 -22 13 -30 2 -51 -15 -28 -50 -47 -86 -47 -25 0 -38 13
-42 43 -4 21 13 23 21 1 9 -24 71 -15 71 11 0 15 -9 21 -38 26 -80 13 -101 85
-33 115 45 19 65 17 75 -8z m-473 -89 c12 -46 25 -92 29 -101 6 -16 3 -17 -26
-12 -38 7 -72 23 -51 24 18 0 15 37 -4 44 -41 16 -77 -7 -51 -33 8 -8 3 -11
-20 -11 -18 0 -35 5 -38 10 -3 6 -1 10 5 10 9 0 24 22 97 138 8 13 20 21 26
19 7 -2 22 -41 33 -88z m184 71 c12 -6 16 -17 13 -30 -6 -23 -23 -27 -23 -5 0
10 -10 15 -31 15 -26 0 -30 -3 -27 -22 2 -16 12 -24 38 -29 33 -7 60 -31 60
-55 0 -6 -9 -23 -21 -38 -17 -22 -28 -26 -69 -26 -27 0 -51 4 -54 8 -8 13 5
52 17 52 6 0 7 -3 4 -7 -12 -11 14 -33 40 -33 27 0 42 25 24 43 -6 6 -26 16
-43 21 -30 10 -33 15 -33 51 0 32 5 42 25 52 30 15 55 16 80 3z"/>
<path d="M2185 3361 c-201 -27 -380 -101 -527 -218 -208 -165 -334 -365 -392
-621 -14 -61 -14 -63 8 -90 38 -45 56 -89 68 -166 l12 -73 25 14 c32 16 141
17 176 1 32 -14 32 -31 0 -56 -18 -14 -25 -30 -25 -53 0 -44 -41 -130 -72
-155 -25 -20 -25 -20 -7 -43 l19 -23 32 20 c42 25 137 39 139 20 5 -52 -34
-124 -85 -159 -31 -21 -36 -29 -36 -64 1 -35 6 -43 39 -67 l39 -26 6 49 c7 53
24 99 37 99 17 0 71 -55 95 -96 18 -30 33 -44 47 -44 27 0 100 -33 134 -60 17
-13 30 -17 37 -11 14 11 107 -24 155 -58 38 -27 79 -89 88 -132 l6 -30 14 29
c27 56 115 71 158 27 14 -13 25 -32 26 -42 0 -10 9 6 20 35 32 81 105 144 202
170 31 9 37 8 37 -5 0 -11 9 -7 33 13 38 32 103 63 134 64 14 0 29 14 47 44
24 41 78 96 95 96 14 0 33 -54 38 -107 l6 -53 36 32 c24 21 38 44 42 67 6 32
3 38 -52 90 -44 43 -59 65 -65 95 -4 25 -3 41 5 46 18 10 109 -6 139 -26 24
-16 26 -16 42 6 17 23 17 24 -16 57 -32 32 -64 111 -64 158 0 12 -11 32 -25
45 -33 31 -32 37 13 49 52 15 132 13 162 -4 37 -21 40 -19 40 35 0 59 28 137
66 187 l27 36 -22 90 c-97 398 -418 707 -823 792 -88 19 -253 26 -333 16z
m143 -91 c9 -11 19 -39 22 -61 5 -40 7 -42 60 -58 163 -51 240 -143 240 -286
0 -38 -4 -87 -9 -107 -7 -29 -5 -38 6 -43 9 -3 46 -26 84 -52 100 -67 194
-170 238 -262 35 -73 36 -80 36 -186 -1 -125 -20 -189 -79 -267 -111 -145
-404 -171 -501 -44 -29 38 -43 104 -31 150 6 25 10 26 72 26 59 0 65 -2 59
-17 -4 -10 -9 -34 -12 -53 -4 -29 0 -40 22 -60 21 -20 37 -25 78 -25 64 0 98
23 126 85 72 160 -9 451 -175 629 l-71 76 23 45 c51 98 16 223 -80 288 -83 55
-80 63 -72 -192 l7 -224 -36 -22 -35 -22 -31 23 -32 23 7 223 c4 153 3 223 -4
223 -55 0 -139 -81 -165 -160 -20 -60 -16 -101 15 -166 l22 -44 -50 -45 c-155
-139 -256 -439 -211 -621 24 -93 107 -143 187 -112 51 19 64 48 47 104 l-13
44 69 0 69 0 0 -68 c0 -61 -3 -71 -31 -105 -42 -51 -98 -77 -178 -84 -163 -14
-306 64 -372 203 -21 44 -24 63 -24 184 0 133 1 136 33 198 17 35 53 88 78
118 48 55 165 149 222 179 24 11 32 21 28 32 -14 35 -18 160 -7 200 27 99 127
189 239 215 52 13 52 13 52 52 0 27 7 47 22 63 26 28 33 29 56 3z m-77 -708
l54 -28 55 29 c49 25 63 28 125 25 122 -7 120 -4 187 -227 32 -107 56 -197 53
-199 -3 -3 -16 0 -30 6 -14 6 -54 16 -89 22 -80 13 -151 0 -230 -40 -32 -16
-65 -30 -73 -30 -7 0 -40 13 -72 30 -82 41 -168 53 -251 36 -36 -8 -73 -17
-82 -21 -25 -10 -24 0 21 149 22 72 47 156 56 188 14 50 20 58 53 72 20 8 67
15 103 15 55 1 77 -4 120 -27z m49 -466 c14 0 37 4 53 8 l27 8 0 -141 c0 -133
-1 -141 -21 -152 -27 -14 -109 -6 -120 12 -5 8 -9 74 -9 147 l0 133 23 -7 c12
-5 33 -8 47 -8z m-209 -435 c-3 -87 -2 -93 18 -98 12 -3 21 -9 21 -14 0 -12
-117 -11 -125 1 -3 6 3 10 14 10 19 0 21 6 21 80 0 77 -1 80 -19 70 -26 -13
-31 -13 -31 4 0 14 75 47 95 42 6 -2 9 -39 6 -95z m176 79 c47 -43 35 -147
-21 -181 -33 -20 -76 -25 -76 -9 0 6 8 10 18 10 20 0 45 24 55 52 5 14 2 16
-17 8 -37 -14 -66 12 -66 58 1 71 61 106 107 62z m171 -45 c2 -33 8 -63 15
-67 8 -5 7 -14 -3 -34 -12 -21 -12 -28 -2 -31 30 -11 7 -23 -43 -23 -30 0 -55
5 -55 10 0 6 9 10 20 10 11 0 20 7 20 15 0 10 -10 15 -34 15 -19 0 -37 4 -41
10 -7 11 47 120 71 144 32 32 49 16 52 -49z m169 39 c23 -23 25 -31 21 -89 -5
-76 -25 -105 -74 -105 -47 0 -64 29 -64 108 0 53 4 67 25 87 31 32 59 32 92
-1z"/>
<path d="M2053 2550 c-23 -8 -34 -19 -42 -43 -16 -51 -71 -263 -71 -273 0 -5
38 -7 86 -5 94 3 150 -7 226 -44 50 -24 50 -24 87 -6 75 39 149 54 243 49 60
-3 87 -1 85 6 -3 6 -17 58 -32 116 -27 105 -35 128 -35 97 0 -22 -9 -22 -26 0
-15 22 -22 16 -30 -25 -5 -25 -3 -32 9 -32 8 0 18 6 20 13 3 6 6 -3 6 -20 1
-32 -13 -45 -21 -21 -7 21 -28 -2 -28 -32 0 -33 25 -47 39 -22 9 14 10 13 11
-10 0 -30 -10 -33 -69 -22 -18 4 -28 11 -24 17 10 17 32 168 26 183 -4 11 4
13 42 7 l48 -6 -7 29 c-4 16 -8 29 -9 30 -1 1 -17 6 -36 13 -53 17 -115 13
-186 -13 l-65 -25 -47 21 c-53 23 -152 32 -200 18z m145 -56 c16 -5 22 -14 22
-35 0 -33 -15 -39 -23 -9 -7 26 -43 26 -57 1 -26 -49 -2 -151 36 -151 17 0 19
41 2 58 -9 9 -5 12 19 12 31 0 32 -1 26 -37 -3 -21 -11 -41 -17 -45 -22 -15
-66 -8 -86 14 -11 12 -20 17 -20 10 0 -6 5 -14 10 -17 19 -12 10 -25 -19 -25
-23 0 -28 4 -25 18 6 25 -10 44 -30 36 -14 -5 -17 -14 -12 -35 5 -24 2 -29
-14 -29 -16 0 -19 5 -14 28 3 15 11 62 17 104 7 43 17 79 22 80 6 2 22 -31 37
-72 l27 -75 0 58 c1 66 13 94 44 107 28 11 27 11 55 4z m284 -10 c5 -3 8 -23
8 -45 0 -36 -3 -42 -31 -52 -30 -12 -31 -14 -26 -59 4 -45 2 -48 -19 -48 -26
0 -42 19 -25 30 8 4 12 35 11 91 -1 46 -1 88 -1 93 1 8 67 0 83 -10z m-146
-82 c12 -48 25 -95 29 -104 6 -15 2 -18 -24 -18 -29 0 -30 2 -24 31 5 28 4 30
-18 27 -19 -2 -24 -8 -22 -31 1 -21 -3 -27 -19 -27 -14 0 -18 5 -14 15 3 8 15
56 27 105 11 50 26 90 32 90 7 0 22 -40 33 -88z"/>
<path d="M2031 2378 c-1 -16 4 -28 9 -28 12 0 12 8 0 35 -8 18 -9 17 -9 -7z"/>
<path d="M2436 2438 c-7 -34 -3 -44 13 -33 13 8 15 52 2 59 -5 3 -11 -8 -15
-26z"/>
<path d="M2288 2397 c-4 -19 -1 -27 8 -27 15 0 16 6 5 35 -7 17 -8 17 -13 -8z"/>
<path d="M2207 1723 c-10 -9 -8 -45 1 -61 12 -17 42 -4 42 18 0 41 -23 64 -43
43z"/>
<path d="M2367 1675 c-21 -45 -21 -45 3 -45 17 0 20 7 20 40 0 22 -1 40 -3 40
-2 0 -11 -16 -20 -35z"/>
<path d="M2534 1715 c-10 -24 1 -134 14 -147 23 -23 33 7 30 83 -2 61 -6 74
-21 77 -9 2 -20 -4 -23 -13z"/>
<path d="M1207 2423 c-12 -11 -7 -126 7 -165 15 -43 45 -92 52 -85 3 2 -9 46
-26 97 -23 66 -28 96 -21 103 18 18 31 -4 62 -105 l29 -93 -3 65 c-3 39 -13
82 -25 105 -23 45 -65 89 -75 78z"/>
<path d="M3370 2408 c-40 -42 -63 -100 -67 -168 -4 -76 5 -64 37 46 20 72 42
105 55 85 3 -6 -8 -54 -24 -106 -17 -52 -31 -98 -31 -101 0 -14 41 47 55 80
17 39 21 186 5 186 -5 0 -19 -10 -30 -22z"/>
<path d="M1420 2183 c-32 -10 -59 -26 -63 -37 -4 -10 86 26 102 40 6 5 -21 3
-39 -3z"/>
<path d="M3185 2169 c28 -11 54 -25 60 -30 18 -18 28 -9 10 11 -10 11 -34 24
-54 30 -60 17 -69 10 -16 -11z"/>
<path d="M1185 2169 c57 -97 118 -164 95 -104 -15 41 -41 74 -73 97 -18 13
-27 16 -22 7z"/>
<path d="M3397 2159 c-30 -23 -83 -107 -73 -116 9 -9 31 13 72 73 41 59 41 76
1 43z"/>
<path d="M1440 2135 c-14 -8 -20 -14 -15 -14 6 0 21 6 35 14 14 8 21 14 15 14
-5 0 -21 -6 -35 -14z"/>
<path d="M3150 2137 c14 -8 36 -17 50 -21 l25 -7 -25 14 c-14 8 -36 17 -50 21
l-25 7 25 -14z"/>
<path d="M1473 2103 c-7 -3 -13 -13 -13 -23 0 -9 -7 -34 -15 -53 -22 -53 -18
-66 10 -33 13 17 27 47 30 69 8 42 6 46 -12 40z"/>
<path d="M3123 2075 c6 -37 43 -105 57 -105 13 0 -34 129 -49 135 -11 4 -12
-2 -8 -30z"/>
<path d="M1397 2073 c-4 -3 -7 -25 -6 -47 0 -31 2 -36 8 -21 22 57 21 92 -2
68z"/>
<path d="M3194 2063 c3 -10 8 -30 12 -45 9 -39 28 -36 20 3 -3 17 -6 38 -6 45
0 8 -7 14 -16 14 -10 0 -14 -6 -10 -17z"/>
<path d="M1325 2038 c11 -52 25 -57 25 -10 0 32 -4 42 -16 42 -12 0 -14 -7 -9
-32z"/>
<path d="M3260 2028 c0 -47 14 -42 25 10 5 25 3 32 -9 32 -12 0 -16 -10 -16
-42z"/>
<path d="M1150 2036 c0 -3 17 -10 38 -16 20 -7 59 -23 87 -37 48 -24 49 -24
30 -2 -24 26 -97 59 -131 59 -13 0 -24 -2 -24 -4z"/>
<path d="M3373 2028 c-17 -6 -44 -24 -60 -40 l-28 -29 75 32 c41 17 84 35 95
39 30 13 -42 11 -82 -2z"/>
<path d="M1156 1979 c28 -31 88 -59 126 -59 l33 0 -30 16 c-16 9 -57 26 -89
40 -57 23 -58 23 -40 3z"/>
<path d="M3385 1965 c-44 -19 -81 -35 -82 -35 -2 0 -3 -4 -3 -9 0 -13 66 -4
98 13 34 18 90 66 77 66 -5 0 -46 -16 -90 -35z"/>
<path d="M1290 1873 c0 -11 12 -26 33 -42 15 -12 17 -11 17 18 0 26 -4 31 -25
31 -14 0 -25 -3 -25 -7z"/>
<path d="M1427 1818 c8 -33 23 -77 34 -97 l20 -36 -5 54 c-5 52 -40 141 -56
141 -4 0 -1 -28 7 -62z"/>
<path d="M1509 1860 c-31 -26 -15 -26 18 0 14 11 21 20 15 20 -5 0 -20 -9 -33
-20z"/>
<path d="M3087 1856 c15 -13 30 -22 33 -19 6 6 -38 43 -52 43 -5 0 4 -11 19
-24z"/>
<path d="M3172 1855 c-21 -27 -43 -106 -41 -153 1 -23 4 -20 25 24 22 46 47
144 39 152 -1 2 -12 -9 -23 -23z"/>
<path d="M3270 1850 c0 -27 2 -30 20 -20 11 6 24 19 30 30 10 18 7 20 -20 20
-27 0 -30 -3 -30 -30z"/>
<path d="M3227 1835 c-5 -22 -16 -63 -26 -92 -13 -38 -15 -50 -5 -46 19 7 46
96 42 140 l-4 38 -7 -40z"/>
<path d="M1376 1815 c8 -57 32 -125 45 -125 5 0 0 24 -11 53 -11 28 -20 61
-20 72 0 11 -5 27 -11 35 -7 11 -8 0 -3 -35z"/>
<path d="M1544 1826 c-21 -19 -35 -38 -31 -42 4 -4 24 9 44 29 48 47 38 57
-13 13z"/>
<path d="M3020 1853 c0 -15 69 -77 77 -69 4 4 3 14 -2 22 -13 20 -75 59 -75
47z"/>
<path d="M1265 1793 c28 -14 58 -32 68 -41 25 -22 21 1 -5 26 -25 23 -70 42
-96 42 -9 -1 6 -12 33 -27z"/>
<path d="M3325 1808 c-28 -15 -65 -50 -65 -60 0 -5 14 1 31 13 17 12 52 30 77
40 l47 18 -35 0 c-19 0 -44 -5 -55 -11z"/>
<path d="M1210 1769 c33 -22 92 -50 97 -45 3 2 -18 16 -46 30 -51 26 -79 34
-51 15z"/>
<path d="M3348 1753 c-27 -14 -46 -28 -44 -30 5 -6 71 22 98 42 37 25 -2 17
-54 -12z"/>
<path d="M1092 1694 c-12 -8 -20 -20 -17 -25 10 -15 45 -10 52 7 9 25 -10 36
-35 18z"/>
<path d="M1669 1664 c11 -21 35 -70 52 -109 25 -54 33 -65 36 -48 5 29 -48
141 -82 173 l-26 24 20 -40z"/>
<path d="M2915 1653 c-35 -49 -65 -121 -65 -157 0 -18 3 -17 20 9 11 17 32 62
46 100 15 39 31 76 37 83 5 6 7 12 3 12 -3 0 -21 -21 -41 -47z"/>
<path d="M3193 1660 c-48 -10 -74 -22 -120 -58 -49 -37 -40 -45 15 -14 75 44
153 74 178 69 13 -2 24 0 24 4 0 11 -39 10 -97 -1z"/>
<path d="M1450 1630 c35 -17 80 -40 100 -51 l35 -21 -35 32 c-38 34 -88 59
-135 66 -21 3 -10 -5 35 -26z"/>
<path d="M1641 1620 c-1 -47 20 -101 56 -141 19 -21 40 -39 46 -39 6 0 1 10
-10 23 -22 24 -58 90 -78 146 -12 31 -14 33 -14 11z"/>
<path d="M2962 1630 c-3 -23 -68 -157 -81 -164 -6 -4 -11 -12 -11 -17 0 -6 13
-1 29 10 40 29 73 100 68 148 -2 21 -4 31 -5 23z"/>
<path d="M1375 1610 c30 -33 95 -68 140 -75 l40 -7 -45 28 c-25 14 -70 38
-100 51 -54 24 -54 24 -35 3z"/>
<path d="M3155 1584 c-106 -53 -113 -59 -60 -49 61 10 169 74 154 89 -2 3 -44
-16 -94 -40z"/>
<path d="M2702 1506 c-26 -25 -45 -47 -42 -50 3 -2 27 18 54 45 60 61 51 65
-12 5z"/>
<path d="M1905 1502 c21 -23 41 -42 43 -42 8 0 -40 55 -61 68 -12 8 -4 -4 18
-26z"/>
<path d="M2722 1458 c-75 -76 -88 -102 -24 -51 32 26 111 123 100 123 -3 0
-37 -32 -76 -72z"/>
<path d="M1852 1474 c30 -42 55 -65 98 -89 8 -5 -3 11 -24 36 -94 105 -130
131 -74 53z"/>
<path d="M1996 1486 c3 -8 11 -13 18 -10 7 3 35 -24 63 -58 28 -35 61 -72 73
-83 l23 -20 -8 25 c-19 65 -86 133 -152 154 -18 6 -22 4 -17 -8z"/>
<path d="M2585 1489 c-80 -44 -122 -89 -137 -147 -8 -31 3 -22 74 61 34 40 69
72 77 72 8 0 16 6 19 13 5 15 -6 15 -33 1z"/>
<path d="M1483 1480 c-18 -6 -34 -14 -37 -19 -15 -23 113 -71 188 -71 68 0 46
13 -60 36 -52 10 -85 23 -89 32 -5 13 4 14 59 8 35 -3 78 -11 96 -17 40 -14
49 -5 16 16 -30 20 -128 28 -173 15z"/>
<path d="M2984 1479 c-25 -7 -68 -39 -53 -39 2 0 36 7 74 15 87 18 128 19 123
3 -3 -7 -46 -22 -96 -34 -51 -11 -95 -24 -99 -28 -3 -3 16 -6 44 -6 60 0 143
23 175 49 l23 20 -37 15 c-41 17 -105 19 -154 5z"/>
<path d="M2792 1459 c-7 -11 -11 -23 -9 -25 7 -7 29 24 25 36 -2 6 -9 1 -16
-11z"/>
<path d="M1800 1462 c0 -10 22 -32 32 -32 5 0 3 9 -4 20 -13 20 -28 27 -28 12z"/>
<path d="M2031 1401 c13 -24 35 -51 49 -60 l25 -16 -23 30 c-12 17 -34 44 -48
60 l-26 30 23 -44z"/>
<path d="M2551 1385 c-44 -57 -44 -75 1 -27 27 29 52 71 46 77 -2 3 -23 -20
-47 -50z"/>
<path d="M1758 1370 c-35 -19 -57 -40 -42 -40 15 0 139 43 149 52 19 17 -71 7
-107 -12z"/>
<path d="M2746 1381 c5 -4 44 -20 88 -34 76 -26 78 -26 60 -5 -11 11 -33 27
-51 34 -36 15 -113 19 -97 5z"/>
<path d="M1855 1335 c-38 -13 -63 -24 -54 -24 24 -1 117 28 124 39 3 6 5 10 3
9 -2 0 -34 -11 -73 -24z"/>
<path d="M2685 1350 c7 -11 100 -40 124 -39 20 0 -7 12 -78 33 -29 8 -49 11
-46 6z"/>
<path d="M1955 1320 c-3 -6 1 -7 9 -4 18 7 21 14 7 14 -6 0 -13 -4 -16 -10z"/>
<path d="M2640 1320 c20 -13 33 -13 25 0 -3 6 -14 10 -23 10 -15 0 -15 -2 -2
-10z"/>
<path d="M2205 1255 c-5 -2 -23 -7 -40 -11 l-30 -7 40 -8 c50 -10 204 -10 265
0 l45 7 -47 12 c-42 11 -207 16 -233 7z"/>
<path d="M1060 3030 c-22 -22 -26 -67 -7 -91 20 -26 80 -59 108 -59 32 0 69
34 69 64 0 47 -72 106 -130 106 -11 0 -29 -9 -40 -20z"/>
<path d="M3580 2621 c0 -29 16 -34 46 -14 24 15 25 18 8 24 -35 14 -54 10 -54
-10z"/>
<path d="M1260 1380 c-12 -7 -12 -12 -2 -22 10 -10 15 -10 22 2 19 29 9 39
-20 20z"/>
<path d="M2072 945 c-10 -22 -9 -25 8 -25 21 0 26 16 12 38 -6 9 -12 6 -20
-13z"/>
</g>
</svg>
